<svg xmlns="http://www.w3.org/2000/svg" viewBox="0 0 128 128" role="img" aria-label="Subsplit">
  <defs>
    <linearGradient id="g" x1="16" y1="16" x2="112" y2="112" gradientUnits="userSpaceOnUse">
      <stop offset="0" stop-color="#6366F1"/>
      <stop offset="0.5" stop-color="#D946EF"/>
      <stop offset="1" stop-color="#10B981"/>
    </linearGradient>
    <filter id="soft" x="-20%" y="-20%" width="140%" height="140%">
      <feDropShadow dx="0" dy="6" stdDeviation="6" flood-color="#000" flood-opacity="0.25"/>
    </filter>
  </defs>
  <rect x="8" y="8" width="112" height="112" rx="28" fill="#09090B"/>
  <g filter="url(#soft)">
    <!-- Split S ribbon (two pieces with a clean gap) -->
    <path
      d="M40 42c0-10 9-18 20-18h28c6 0 10 4 10 10s-4 10-10 10H62c-3 0-6 2-6 5s3 5 6 5h10c14 0 26 10 26 24s-12 26-26 26H44c-6 0-10-4-10-10s4-10 10-10h28c4 0 7-3 7-6s-3-6-7-6H60c-14 0-20-10-20-20z"
      fill="url(#g)"/>
    <path
      d="M48 38c0-6 4-10 10-10h28c3 0 6 2 6 5s-3 5-6 5H62c-8 0-14 6-14 14 0 2-2 4-4 4s-4-2-4-4c0-5 1-10 4-14z"
      fill="#fff" opacity="0.08"/>
    <!-- Split seam highlight -->
    <rect x="61.5" y="22" width="5" height="84" rx="2.5" fill="#09090B"/>
  </g>
</svg>

